<?xml version="1.0" standalone="no"?><!DOCTYPE svg PUBLIC "-//W3C//DTD SVG 1.1//EN" "http://www.w3.org/Graphics/SVG/1.1/DTD/svg11.dtd"><svg class="icon" width="48px" height="48.00px" viewBox="0 0 1024 1024" version="1.1" xmlns="http://www.w3.org/2000/svg"><path fill="#ffffff" d="M512 0c-281.6 0-512 230.4-512 512s230.4 512 512 512 512-230.4 512-512S793.6 0 512 0zM755.2 640c-6.4 19.2-19.2 19.2-32 0 0-6.4-6.4-12.8-12.8-19.2-6.4 25.6-19.2 44.8-38.4 70.4 12.8 6.4 19.2 6.4 25.6 12.8 19.2 19.2 19.2 38.4 6.4 51.2-25.6 19.2-115.2 32-166.4 0-6.4 0-12.8 0-19.2 0-6.4 0-12.8 0-19.2 0-51.2 32-147.2 19.2-166.4 0-19.2-12.8-19.2-38.4 6.4-51.2 6.4-6.4 12.8-6.4 25.6-12.8-19.2-19.2-32-44.8-38.4-70.4-6.4 6.4-6.4 12.8-12.8 19.2-12.8 19.2-25.6 19.2-32 0-6.4-25.6-6.4-57.6 12.8-96 12.8-25.6 25.6-44.8 38.4-57.6-6.4-6.4-6.4-12.8-6.4-25.6 0-19.2 12.8-32 25.6-44.8 6.4-89.6 83.2-160 172.8-160 89.6 0 160 70.4 172.8 160 19.2 12.8 25.6 32 25.6 44.8 0 6.4 0 19.2-6.4 25.6 12.8 12.8 25.6 32 38.4 57.6l0 0C761.6 582.4 768 614.4 755.2 640z" /></svg>