<?xml version="1.0" standalone="no"?><!DOCTYPE svg PUBLIC "-//W3C//DTD SVG 1.1//EN" "http://www.w3.org/Graphics/SVG/1.1/DTD/svg11.dtd"><svg class="icon" width="48px" height="47.95px" viewBox="0 0 1025 1024" version="1.1" xmlns="http://www.w3.org/2000/svg"><path fill="#ffffff" d="M512.25088 0c282.77248 0 512 229.22752 512 512 0 282.77248-229.22752 512-512 512s-512-229.22752-512-512C0.24576 229.22752 229.4784 0 512.25088 0zM512.256 511.99488 512.256 511.99488 512.256 511.99488C512.25088 512 512.25088 512 512.256 511.99488c-0.00512 0.00512-0.00512 0.00512-0.00512 0.01024l0 0c-0.00512 0-0.00512 0-0.00512 0M334.27968 517.07904l-45.29152-67.01056L223.59552 450.06848l45.45536 67.01056L334.27968 517.07904zM501.15584 541.75232 426.98752 541.75232l28.98944-184.86272L398.50496 356.8896l-28.99456 184.86272L185.78432 541.75232l-5.8368 37.1712 153.0624 0-54.94784 48.33792L172.37504 627.26144l-5.69856 36.34176 145.4336 0.17408 71.02976-61.68064 31.79008 61.68064 65.39776 0-43.68896-84.68992 40.99072-0.16384L501.15584 541.75232zM347.53536 428.22656l-45.1072-67.00032L236.5184 361.22624l45.28128 67.00032L347.53536 428.22656zM563.8144 591.42656l-52.42368 74.18368 53.94944 0 52.75136-74.18368L563.8144 591.42656zM850.27328 412.54912l7.54688-46.99648-189.62944 0 12.42624-11.50464-64.72192 0L549.9904 415.232l69.95456 0 15.26272-13.5168 146.81088 0-86.9632 46.17728-41.06752-20.83328-84.79232 0 75.008 44.01152-109.56288 49.51552 100.12672 0 55.97184-23.67488 52.75136 23.67488 107.5456 0-106.8288-51.85024L850.27328 412.54912zM715.07456 523.41248l-57.32352 0-3.31776 21.1712-122.19392 0-5.7088 36.34176 122.20928 0-8.40704 52.5056-24.27392 0-5.888 36.51584 29.50144 0 57.9584-35.33824 8.4224-53.67808 117.15072 0 23.23456-36.34176-134.68672 0L715.07456 523.41248zM618.09152 591.42656 618.09152 591.42656 618.09152 591.42656 618.09152 591.42656zM727.00416 590.2592l38.50752 73.68192 57.472 0-38.67648-73.68192L727.00416 590.2592z" /></svg>