<?xml version="1.0" standalone="no"?><!DOCTYPE svg PUBLIC "-//W3C//DTD SVG 1.1//EN" "http://www.w3.org/Graphics/SVG/1.1/DTD/svg11.dtd"><svg class="icon" width="48px" height="48.00px" viewBox="0 0 1024 1024" version="1.1" xmlns="http://www.w3.org/2000/svg"><path fill="#ffffff" d="M512 0c-281.6 0-512 230.4-512 512s230.4 512 512 512 512-230.4 512-512S793.6 0 512 0zM710.4 633.6c-32 51.2-89.6 83.2-147.2 96-32 6.4-57.6 6.4-76.8 12.8-76.8 0-134.4-12.8-185.6-44.8-64-38.4-83.2-102.4-51.2-172.8 38.4-76.8 96-128 172.8-166.4 12.8-6.4 32-12.8 44.8-12.8 32-6.4 51.2 12.8 51.2 44.8 0 6.4 0 12.8 0 19.2 0 6.4 0 12.8 0 19.2 6.4 0 12.8 0 19.2 0 25.6-6.4 51.2-12.8 70.4-12.8 44.8 0 64 25.6 51.2 64-6.4 19.2 0 25.6 12.8 32C729.6 524.8 748.8 576 710.4 633.6zM678.4 403.2c-12.8-12.8-32-12.8-38.4-12.8-12.8 0-19.2-6.4-19.2-19.2 0-12.8 6.4-19.2 19.2-19.2l0 0c6.4 0 44.8 0 70.4 32 6.4 12.8 19.2 32 12.8 64 0 6.4-12.8 12.8-19.2 12.8 0 0 0 0-6.4 0-12.8 0-19.2-12.8-12.8-25.6C691.2 422.4 684.8 409.6 678.4 403.2zM793.6 467.2c0 6.4-12.8 19.2-19.2 19.2 0 0 0 0 0 0-12.8 0-19.2-12.8-19.2-19.2 6.4-44.8 0-83.2-19.2-102.4-38.4-44.8-108.8-38.4-108.8-38.4-12.8 0-19.2-6.4-19.2-19.2 0-12.8 6.4-19.2 19.2-19.2 6.4 0 89.6 0 140.8 51.2C793.6 364.8 806.4 409.6 793.6 467.2zM473.6 576c-6.4 0-12.8 6.4-12.8 12.8 0 0 6.4 6.4 6.4 12.8 6.4-6.4 12.8-12.8 12.8-12.8C480 588.8 473.6 576 473.6 576zM588.8 505.6c-6.4-6.4-19.2-12.8-25.6-12.8-32-12.8-64-19.2-102.4-12.8-51.2 6.4-102.4 19.2-140.8 57.6-44.8 44.8-38.4 102.4 12.8 140.8 32 25.6 76.8 32 115.2 32 6.4 0 12.8 0 25.6 0 44.8-6.4 89.6-19.2 128-51.2C652.8 608 646.4 544 588.8 505.6zM531.2 640c-19.2 25.6-51.2 44.8-83.2 44.8-44.8 0-76.8-25.6-83.2-64 0-6.4 0-19.2 0-25.6 6.4-38.4 32-57.6 70.4-70.4 32-6.4 70.4-6.4 96 25.6C544 576 550.4 614.4 531.2 640zM428.8 588.8c-19.2 0-38.4 12.8-38.4 32 0 12.8 12.8 25.6 25.6 25.6 19.2 0 32-12.8 32-32C454.4 601.6 441.6 588.8 428.8 588.8z" /></svg>