<?xml version="1.0" standalone="no"?><!DOCTYPE svg PUBLIC "-//W3C//DTD SVG 1.1//EN" "http://www.w3.org/Graphics/SVG/1.1/DTD/svg11.dtd"><svg class="icon" width="48px" height="48.00px" viewBox="0 0 1024 1024" version="1.1" xmlns="http://www.w3.org/2000/svg"><path fill="#ffffff" d="M512 1024C794.769792 1024 1024 794.769792 1024 512 1024 229.230208 794.769792 0 512 0 229.230208 0 0 229.230208 0 512 0 794.769792 229.230208 1024 512 1024ZM351.474258 628.13558 278.069034 665.466573 299.070007 601.401209C246.500349 564.132024 215.04 516.120036 215.04 457.607572 215.04 356.273023 309.597094 276.48 425.030379 276.48 528.281533 276.48 618.731487 340.239268 636.90215 426.052185 630.222001 425.293812 623.48865 424.799348 616.68372 424.799348 516.935146 424.799348 438.152723 500.304081 438.152723 593.349503 438.152723 608.835817 440.52937 623.751144 444.633608 637.980696 438.152723 638.497725 431.62057 638.827366 425.030379 638.827366 398.818581 638.827366 377.742159 633.397101 351.474258 628.13558ZM324.937448 390.109417C324.937448 397.854045 328.081161 405.553544 333.48061 411.029921 338.881026 416.506298 346.471401 419.694801 354.108206 419.694801 361.744044 419.694801 369.335386 416.506298 374.734835 411.029921 380.134284 405.553544 383.277997 397.854045 383.277997 390.109417 383.277997 382.363807 380.134284 374.664308 374.734835 369.187932 369.335386 363.707631 361.744044 360.519128 354.108206 360.519128 346.471401 360.519128 338.881026 363.707631 333.48061 369.187932 328.081161 374.664308 324.937448 382.363807 324.937448 390.109417ZM473.735688 390.109417C473.735688 397.854045 476.879402 405.553544 482.282719 411.029921 487.682168 416.506298 495.272543 419.694801 502.909348 419.694801 510.545186 419.694801 518.136529 416.506298 523.535977 411.029921 528.935426 405.553544 532.079139 397.854045 532.079139 390.109417 532.079139 382.363807 528.935426 374.664308 523.535977 369.187932 518.136529 363.707631 510.545186 360.519128 502.909348 360.519128 495.272543 360.519128 487.682168 363.707631 482.282719 369.187932 476.879402 374.664308 473.735688 382.363807 473.735688 390.109417ZM750.574957 766.658867 692.975354 734.659053C671.974381 739.997094 650.878618 745.354758 629.968569 745.354758 530.057489 745.354758 451.366959 676.089683 451.366959 590.796739 451.366959 505.642125 530.057489 436.230868 629.968569 436.230868 724.325434 436.230868 808.33319 505.642125 808.33319 590.796739 808.33319 638.827366 776.929914 681.359053 734.780941 713.431469L750.574957 766.658867ZM552.131194 543.107526C552.131194 549.170587 554.594898 555.198329 558.820049 559.48662 563.048101 563.770988 568.991171 566.269793 574.969062 566.269793 580.946954 566.269793 586.890023 563.770988 591.114207 559.48662 595.342259 555.198329 597.805964 549.170587 597.805964 543.107526 597.805964 537.044465 595.342259 531.016723 591.114207 526.731374 586.890023 522.443083 580.946954 519.944278 574.969062 519.944278 568.991171 519.944278 563.048101 522.443083 558.820049 526.731374 554.594898 531.016723 552.131194 537.044465 552.131194 543.107526ZM666.555686 543.107526C666.555686 549.170587 669.019392 555.198329 673.247443 559.48662 677.472595 563.770988 683.415661 566.269793 689.393555 566.269793 695.371443 566.269793 701.314515 563.770988 705.542566 559.48662 709.766752 555.198329 712.230458 549.170587 712.230458 543.107526 712.230458 537.044465 709.766752 531.016723 705.542566 526.731374 701.314515 522.443083 695.371443 519.944278 689.393555 519.944278 683.415661 519.944278 677.472595 522.443083 673.247443 526.731374 669.019392 531.016723 666.555686 537.044465 666.555686 543.107526Z" /></svg>